<svg xmlns="http://www.w3.org/2000/svg" width="361.424" height="495.136" viewBox="0 0 361.424 495.136"><g transform="translate(-1172 -1410.2)"><g transform="matrix(0.998, 0.07, -0.07, 0.998, 56.048, -177.872)"><g transform="translate(1137.428 1515.348)"><rect width="330" height="462" rx="18" transform="translate(119.517 -0.024)" fill="#d9a3a3"/><path d="M0,20.788V26.4C0,29.494,8.043,32,17.974,32V26.4C8.043,26.4,0,23.881,0,20.791Zm32.03,3.494L17.974,20.788V26.4L32.03,29.892c2.45-.959,3.918-2.172,3.918-3.494V20.788C35.948,22.109,34.48,23.323,32.03,24.283Zm-14.056-9.1v5.6C8.048,20.788,0,18.276,0,15.18V9.562C0,6.47,8.043,3.955,17.974,3.955S35.948,6.472,35.948,9.563V15.18c0,1.323-1.468,2.531-3.918,3.5l-14.056-3.5Z" transform="translate(349.237 287.901)" fill="#102a4b"/><g transform="translate(167.468 91.652)"><g transform="translate(145.425 119.084)" opacity="0.4"><path d="M4.471,0C2,0,0,3.3,0,7.364c0,2.263.559,4.663,1.118,8.367.437,2.9,1.5,5.308,3.353,5.308s3.093-1.6,3.093-4.535c0-1-.821-2.589-.857-3.946C6.64,10.11,8.347,9.133,8.347,6.87,8.347,2.8,6.939,0,4.471,0ZM16.534,8.415c-2.469,0-3.877,2.8-3.877,6.87,0,2.263,1.708,3.239,1.641,5.687-.036,1.357-.857,2.947-.857,3.946,0,2.932,1.241,4.535,3.093,4.535s2.916-2.405,3.353-5.308c.558-3.7,1.118-6.1,1.118-8.367C21,11.712,19,8.415,16.534,8.415Z" transform="matrix(0.574, 0.819, -0.819, 0.574, 67.942, -28.26)" fill="#102a4b"/><path d="M4.471,0C2,0,0,3.3,0,7.364c0,2.263.559,4.663,1.118,8.367.437,2.9,1.5,5.308,3.353,5.308s3.093-1.6,3.093-4.535c0-1-.821-2.589-.857-3.946C6.64,10.11,8.347,9.133,8.347,6.87,8.347,2.8,6.939,0,4.471,0ZM16.534,8.415c-2.469,0-3.877,2.8-3.877,6.87,0,2.263,1.708,3.239,1.641,5.687-.036,1.357-.857,2.947-.857,3.946,0,2.932,1.241,4.535,3.093,4.535s2.916-2.405,3.353-5.308c.558-3.7,1.118-6.1,1.118-8.367C21,11.712,19,8.415,16.534,8.415Z" transform="matrix(0.574, 0.819, -0.819, 0.574, 46.883, -10.288)" fill="#102a4b"/></g><text transform="translate(0.265 7.008)" fill="#102a4b" font-size="18" font-family="Khand-Bold, Khand" font-weight="700"><tspan x="0" y="19">Strikkeklub</tspan><tspan font-family="Khand-Medium, Khand" font-weight="500"><tspan x="0" y="47">Onsdag kl. 12</tspan></tspan></text><text transform="translate(0.746 86.886)" fill="#102a4b" font-size="18" font-family="Khand-Bold, Khand" font-weight="700"><tspan x="0" y="19">Walk n’ talk</tspan><tspan font-family="Khand-Medium, Khand" font-weight="500"><tspan x="0" y="47">Tirsdag og Torsdag kl. 13</tspan><tspan x="0" y="75">Mødested: Afarten ved Munkemose</tspan></tspan></text><text transform="translate(1.528 201.719)" fill="#102a4b" font-size="18" font-family="Khand-Bold, Khand" font-weight="700"><tspan x="0" y="19">Fredags kage</tspan><tspan font-family="Khand-Medium, Khand" font-weight="500"><tspan x="0" y="47" xml:space="preserve">Hver fredags serveres der  kage i </tspan><tspan x="0" y="75">cafeen</tspan></tspan></text><g transform="translate(155.257)"><path d="M384.947,15.995a1.183,1.183,0,0,0,.765-.282l8.38-7.116a4.727,4.727,0,1,0-2.013-3.863,4.679,4.679,0,0,0,.488,2.053l-8.387,7.121a1.184,1.184,0,0,0,.768,2.087ZM396.812,2.367a2.367,2.367,0,1,1-2.367,2.367A2.37,2.37,0,0,1,396.812,2.367Z" transform="translate(-330.538)" fill="#102a4b"/><path d="M46.652,426.367a26.645,26.645,0,0,1-15.611-4.931l1.592-1.244a1.183,1.183,0,0,0-1.456-1.865L17.521,428.985a1.183,1.183,0,1,0,1.456,1.865l10.127-7.9a28.954,28.954,0,0,0,17.548,5.787,1.183,1.183,0,1,0,0-2.367Z" transform="translate(-14.699 -360.093)" fill="#102a4b"/><path d="M80.974,75.367a4.683,4.683,0,0,0-4.454,6.277l-8.13,6.345a1.184,1.184,0,0,0,1.457,1.867l2.231-1.743a27.263,27.263,0,0,1-6.91,29.706,50.673,50.673,0,0,0-6.729-44.484,27.255,27.255,0,0,1,10.5,8.887,1.183,1.183,0,1,0,1.937-1.36,29.639,29.639,0,0,0-24.224-12.6c-.67,0-1.336.03-2,.075-.03,0-.058,0-.09.006a29.376,29.376,0,0,0-18.822,8.575A1.184,1.184,0,0,0,27.415,78.6a27.181,27.181,0,0,1,9.117-6.013,47.8,47.8,0,0,1,4.887,4.92,50.934,50.934,0,0,0-20.6,6.306c-.03.017-.046.046-.076.065a1.208,1.208,0,0,0-.182.159,1.174,1.174,0,0,0-.144.182.981.981,0,0,0-.065.079,29.633,29.633,0,0,0-3.1,10.393.878.878,0,0,0-.011.127,29.216,29.216,0,0,0,1.986,14.141,1.183,1.183,0,0,0,1.1.74,1.205,1.205,0,0,0,.445-.086,1.185,1.185,0,0,0,.652-1.542,26.926,26.926,0,0,1-1.4-4.637A48.409,48.409,0,0,1,50.24,92.7a48.5,48.5,0,0,1,.063,32.748c-.009.026,0,.051-.012.077a1.2,1.2,0,0,0-.03.209,1.1,1.1,0,0,0-.008.25c0,.024-.006.044,0,.067a1.163,1.163,0,0,0,.064.176,1.146,1.146,0,0,0,.059.162,1.132,1.132,0,0,0,.191.259c.024.026.04.056.066.079a1.181,1.181,0,0,0,.786.309,1.143,1.143,0,0,0,.2-.016A29.584,29.584,0,0,0,74.014,86.6l3.824-2.982a4.725,4.725,0,1,0,3.136-8.252ZM22.3,85.7a48.86,48.86,0,0,1,20.92-5.959,48.777,48.777,0,0,1,2.8,4.11A51.289,51.289,0,0,0,20,92.332,26.925,26.925,0,0,1,22.3,85.7Zm-2.7,15.042a27.561,27.561,0,0,1-.162-2.889c0-.779.044-1.549.108-2.316a48.81,48.81,0,0,1,27.81-9.351q1.086,2.038,1.973,4.166A50.894,50.894,0,0,0,19.6,100.742Zm33.6,23.525a50.942,50.942,0,0,0-.972-33.022,1.138,1.138,0,0,0-.108-.289,51.343,51.343,0,0,0-2.941-6.365,1.089,1.089,0,0,0-.14-.252A50.387,50.387,0,0,0,39.108,71.7a27.068,27.068,0,0,1,5.12-.953A48.722,48.722,0,0,1,55.8,123.5,27.08,27.08,0,0,1,53.193,124.266Zm5.6-2.049a51.155,51.155,0,0,0-11.32-51.56,27.206,27.206,0,0,1,6.8,1.077,48.35,48.35,0,0,1,7.391,48.832A27.017,27.017,0,0,1,58.795,122.218Zm22.179-39.75A2.367,2.367,0,1,1,83.341,80.1,2.369,2.369,0,0,1,80.974,82.468Z" transform="translate(-14.7 -58.798)" fill="#102a4b"/><path d="M10.237,349.36a1.184,1.184,0,0,0,1.739-1.608,25.922,25.922,0,0,1-2.387-2.959l6.611-5.779a1.184,1.184,0,0,0-1.559-1.782l-6.979,6.1a1.016,1.016,0,0,0-.781.683L.405,349.676a1.183,1.183,0,1,0,1.557,1.782l5.834-5.1A28.4,28.4,0,0,0,10.237,349.36Z" transform="translate(-0.001 -290.21)" fill="#102a4b"/></g></g></g></g><path d="M61.524,33.193a3.744,3.744,0,0,0-3.739,3.739V83.527a19.329,19.329,0,0,1-5.273,13.207,18.97,18.97,0,0,1-13.3,5.681H35.95a18.63,18.63,0,0,1-13.135-5.9,19.243,19.243,0,0,1-5.728-13.231V23.174a13.026,13.026,0,0,1,4.147-9.468A14.261,14.261,0,0,1,31.06,9.8,13.34,13.34,0,0,1,44.53,23.174V79.309c0,4.1-3.26,7.718-6.951,7.718-3.26,0-6.759-3.092-6.759-7.718V47.287a3.739,3.739,0,0,0-7.478,0V79.309c0,8.509,6.112,14.932,14.237,14.932a14.183,14.183,0,0,0,10.235-4.147,15.14,15.14,0,0,0,4.194-10.786V23.174A20.95,20.95,0,0,0,30.988,2.25,21.033,21.033,0,0,0,16.08,8.362,20.679,20.679,0,0,0,9.872,23.2V83.311a26.787,26.787,0,0,0,7.814,18.7,25.908,25.908,0,0,0,18.24,7.646h3.26a26.181,26.181,0,0,0,18.192-7.694,26.925,26.925,0,0,0,5.728-8.293,25.094,25.094,0,0,0,2.133-10.091V36.932A3.708,3.708,0,0,0,61.524,33.193Z" transform="translate(1201.615 1412.506) rotate(-4)" fill="#102a4b"/></g></svg>