<svg xmlns="http://www.w3.org/2000/svg" width="361.424" height="495.136" viewBox="0 0 361.424 495.136"><g transform="translate(-1172 -1410.2)"><g transform="matrix(0.998, 0.07, -0.07, 0.998, 56.048, -177.872)"><g transform="translate(1137.428 1515.348)"><rect width="330" height="462" rx="18" transform="translate(119.517 -0.024)" fill="#d9a3a3"/></g></g><path d="M61.524,33.193a3.744,3.744,0,0,0-3.739,3.739V83.527a19.329,19.329,0,0,1-5.273,13.207,18.97,18.97,0,0,1-13.3,5.681H35.95a18.63,18.63,0,0,1-13.135-5.9,19.243,19.243,0,0,1-5.728-13.231V23.174a13.026,13.026,0,0,1,4.147-9.468A14.261,14.261,0,0,1,31.06,9.8,13.34,13.34,0,0,1,44.53,23.174V79.309c0,4.1-3.26,7.718-6.951,7.718-3.26,0-6.759-3.092-6.759-7.718V47.287a3.739,3.739,0,0,0-7.478,0V79.309c0,8.509,6.112,14.932,14.237,14.932a14.183,14.183,0,0,0,10.235-4.147,15.14,15.14,0,0,0,4.194-10.786V23.174A20.95,20.95,0,0,0,30.988,2.25,21.033,21.033,0,0,0,16.08,8.362,20.679,20.679,0,0,0,9.872,23.2V83.311a26.787,26.787,0,0,0,7.814,18.7,25.908,25.908,0,0,0,18.24,7.646h3.26a26.181,26.181,0,0,0,18.192-7.694,26.925,26.925,0,0,0,5.728-8.293,25.094,25.094,0,0,0,2.133-10.091V36.932A3.708,3.708,0,0,0,61.524,33.193Z" transform="translate(1201.615 1412.506) rotate(-4)" fill="#102a4b"/></g></svg>