<svg xmlns="http://www.w3.org/2000/svg" width="330" height="467" viewBox="0 0 330 467"><g transform="translate(-607 -1713)"><g transform="translate(-1680 130)"><rect width="330" height="462" rx="18" transform="translate(2287 1588)" fill="#31bfc0"/></g><g transform="translate(738 1808.73)"><path d="M27,12h2.993a11.971,11.971,0,1,1,0,23.943H27" transform="translate(23.885 10.45)" fill="none" stroke="#102a4b" stroke-linecap="round" stroke-linejoin="round" stroke-width="5"/><path d="M3,12H50.885V38.936A11.971,11.971,0,0,1,38.914,50.907H14.971A11.971,11.971,0,0,1,3,38.936Z" transform="translate(0 10.45)" fill="none" stroke="#102a4b" stroke-linecap="round" stroke-linejoin="round" stroke-width="5"/><path d="M9,1.5v8.979" transform="translate(5.971)" fill="none" stroke="#102a4b" stroke-linecap="round" stroke-linejoin="round" stroke-width="5"/><path d="M15,1.5v8.979" transform="translate(11.943)" fill="none" stroke="#102a4b" stroke-linecap="round" stroke-linejoin="round" stroke-width="5"/><path d="M21,1.5v8.979" transform="translate(17.914)" fill="none" stroke="#102a4b" stroke-linecap="round" stroke-linejoin="round" stroke-width="5"/></g><text transform="translate(704 1768)" fill="#102a4b" font-size="36" font-family="Khand-Bold, Khand" font-weight="700"><tspan x="0" y="0">NADA </tspan><tspan y="0" font-family="Khand-Regular, Khand" font-weight="400">CAFÉ</tspan></text><path d="M58.638,34.135a3.707,3.707,0,0,0-3.53,3.853V86A20.929,20.929,0,0,1,50.13,99.608a17.22,17.22,0,0,1-12.559,5.853H34.493a16.959,16.959,0,0,1-12.4-6.076,20.746,20.746,0,0,1-5.408-13.633V23.811A14.019,14.019,0,0,1,20.6,14.055a12.881,12.881,0,0,1,9.278-4.026,12.207,12.207,0,0,1,9.007,4,14.432,14.432,0,0,1,3.711,9.78V81.653c0,4.223-3.078,7.953-6.563,7.953-3.078,0-6.382-3.186-6.382-7.953v-33A3.707,3.707,0,0,0,26.12,44.8a3.707,3.707,0,0,0-3.53,3.853v33c0,8.768,5.771,15.387,13.442,15.387a12.836,12.836,0,0,0,9.663-4.273,16.4,16.4,0,0,0,3.96-11.114V23.811A22.324,22.324,0,0,0,43.839,8.548a18.828,18.828,0,0,0-28.106,0A22.319,22.319,0,0,0,9.872,23.836V85.778a28.92,28.92,0,0,0,7.377,19.264A23.481,23.481,0,0,0,34.47,112.92h3.078a23.739,23.739,0,0,0,17.176-7.928,27.92,27.92,0,0,0,7.422-18.943V37.988A3.674,3.674,0,0,0,58.638,34.135Z" transform="translate(627.427 1710.75)" fill="#d9a3a3"/></g></svg>