<svg xmlns="http://www.w3.org/2000/svg" width="640.652" height="478.225" viewBox="0 0 640.652 478.225"><g transform="translate(-1017.348 -688.19)"><path d="M286.5,0C444.73,0,573,78.35,573,175S444.73,350,286.5,350,0,271.65,0,175,128.27,0,286.5,0Z" transform="matrix(0.97, -0.242, 0.242, 0.97, 1017.348, 826.812)" fill="#d9a3a3"/><g transform="translate(1425 751.621)"><path d="M94.761,31.905c0-6.929-2.5-10.268-4.6-11.845a7.966,7.966,0,0,0-6.907-1.421c-4.442,1.266-7.233,6.663-8.4,9.409-.2-.074-.392-.141-.6-.2-2.443-.7-5.138-1.747-8-2.858-5.923-2.31-12.667-4.923-18.9-4.923-6.885,0-14.866,3.139-21.277,5.656-2.08.822-4.05,1.6-5.693,2.147-.155.052-.318.126-.474.192-1.162-2.732-3.968-8.143-8.4-9.424A7.958,7.958,0,0,0,4.6,20.06C2.5,21.637,0,24.976,0,31.905,0,42.573,13.148,63.258,13.711,64.161h0c1.873,5.53,3.887,10.276,4.96,11.371C24.7,81.647,38.608,85.9,47.328,85.9s22.683-4.264,28.658-10.364c1.073-1.1,3.176-5.96,5.116-11.527C82.368,62.081,94.761,42.262,94.761,31.905Zm-10.7-10.424a4.975,4.975,0,0,1,4.309.933c2.221,1.666,3.428,5.034,3.428,9.491,0,5.182-3.657,13.378-7.129,19.989a28.547,28.547,0,0,0,.74-5.13c.126-5.789-3.309-13.651-7.981-17.249C78.474,26.916,80.909,22.385,84.063,21.482ZM2.961,31.905c0-4.442,1.214-7.825,3.428-9.491a4.968,4.968,0,0,1,4.309-.933c3.146.9,5.575,5.449,6.663,8.055-4.4,3.339-7.884,10.172-7.884,16.287a33.988,33.988,0,0,0,.955,6.663C6.833,45.772,2.961,37.236,2.961,31.905ZM73.9,73.5c-4.768,4.879-17.634,9.491-26.518,9.491-8.995,0-21.647-4.531-26.548-9.5-1.481-1.562-8.41-20.729-8.41-27.666,0-6.145,4.442-13.651,8.928-15.154,1.71-.57,3.7-1.355,5.841-2.221,6.122-2.406,13.844-5.427,20.188-5.427,5.678,0,11.845,2.4,17.827,4.723,2.961,1.133,5.678,2.221,8.262,2.961a6.1,6.1,0,0,1,1.377.622,1.672,1.672,0,0,0,.192.118c3.909,2.487,7.566,9.661,7.4,15.273C82.308,53.463,75.32,72.008,73.9,73.5Z" transform="translate(0 0)" fill="#102a4b"/><path d="M73.787,72.286c-.111,0-11.1,2.014-16.02,2.014s-15.909-1.991-16.02-2.014a1.483,1.483,0,1,0-.533,2.917c.466.081,11.371,2.043,16.553,2.043S73.854,75.27,74.32,75.188a1.483,1.483,0,0,0-.533-2.917Z" transform="translate(-10.387 -13.988)" fill="#102a4b"/><path d="M73.787,59.286c-.111,0-11.1,2.014-16.02,2.014s-15.909-1.991-16.02-2.014a1.483,1.483,0,0,0-.533,2.917c.466.081,11.371,2.043,16.553,2.043S73.854,62.27,74.32,62.188a1.483,1.483,0,1,0-.533-2.917Z" transform="translate(-10.387 -10.613)" fill="#102a4b"/><path d="M73.787,46.286c-.111,0-11.1,2.014-16.02,2.014s-15.909-1.991-16.02-2.014a1.483,1.483,0,0,0-.533,2.917c.466.081,11.371,2.043,16.553,2.043S73.854,49.27,74.32,49.188a1.483,1.483,0,1,0-.533-2.917Z" transform="translate(-10.387 -7.237)" fill="#102a4b"/></g></g></svg>