<svg xmlns="http://www.w3.org/2000/svg" xmlns:xlink="http://www.w3.org/1999/xlink" width="162" height="236" viewBox="0 0 162 236"><defs><filter id="a" x="81" y="0" width="81" height="81" filterUnits="userSpaceOnUse"><feOffset dy="3" input="SourceAlpha"/><feGaussianBlur stdDeviation="3" result="b"/><feFlood flood-opacity="0.161"/><feComposite operator="in" in2="b"/><feComposite in="SourceGraphic"/></filter><filter id="c" x="0" y="123" width="68" height="68" filterUnits="userSpaceOnUse"><feOffset dy="3" input="SourceAlpha"/><feGaussianBlur stdDeviation="3" result="d"/><feFlood flood-opacity="0.161"/><feComposite operator="in" in2="d"/><feComposite in="SourceGraphic"/></filter><filter id="e" x="37" y="143" width="93" height="93" filterUnits="userSpaceOnUse"><feOffset dy="3" input="SourceAlpha"/><feGaussianBlur stdDeviation="3" result="f"/><feFlood flood-opacity="0.161"/><feComposite operator="in" in2="f"/><feComposite in="SourceGraphic"/></filter><filter id="g" x="50" y="69" width="80" height="80" filterUnits="userSpaceOnUse"><feOffset dy="3" input="SourceAlpha"/><feGaussianBlur stdDeviation="3" result="h"/><feFlood flood-opacity="0.161"/><feComposite operator="in" in2="h"/><feComposite in="SourceGraphic"/></filter><filter id="i" x="39" y="52" width="60" height="60" filterUnits="userSpaceOnUse"><feOffset dy="3" input="SourceAlpha"/><feGaussianBlur stdDeviation="3" result="j"/><feFlood flood-opacity="0.161"/><feComposite operator="in" in2="j"/><feComposite in="SourceGraphic"/></filter></defs><g transform="translate(-1569 -879)"><g transform="matrix(1, 0, 0, 1, 1569, 879)" filter="url(#a)"><circle cx="31.5" cy="31.5" r="31.5" transform="translate(90 6)" fill="#f2e7c4"/></g><g transform="matrix(1, 0, 0, 1, 1569, 879)" filter="url(#c)"><circle cx="25" cy="25" r="25" transform="translate(9 129)" fill="#a92d23"/></g><g transform="matrix(1, 0, 0, 1, 1569, 879)" filter="url(#e)"><circle cx="37.5" cy="37.5" r="37.5" transform="translate(46 149)" fill="#102a4b"/></g><g transform="matrix(1, 0, 0, 1, 1569, 879)" filter="url(#g)"><circle cx="31" cy="31" r="31" transform="translate(59 75)" fill="#d9a3a3"/></g><g transform="matrix(1, 0, 0, 1, 1569, 879)" filter="url(#i)"><circle cx="21" cy="21" r="21" transform="translate(48 58)" fill="#f2e7c4"/></g></g></svg>