<svg xmlns="http://www.w3.org/2000/svg" width="57.234" height="52.072" viewBox="0 0 57.234 52.072"><g transform="translate(-22.756 28.26)" opacity="0.4"><path d="M4.471,0C2,0,0,3.3,0,7.364c0,2.263.559,4.663,1.118,8.367.437,2.9,1.5,5.308,3.353,5.308s3.093-1.6,3.093-4.535c0-1-.821-2.589-.857-3.946C6.64,10.11,8.347,9.133,8.347,6.87,8.347,2.8,6.939,0,4.471,0ZM16.534,8.415c-2.469,0-3.877,2.8-3.877,6.87,0,2.263,1.708,3.239,1.641,5.687-.036,1.357-.857,2.947-.857,3.946,0,2.932,1.241,4.535,3.093,4.535s2.916-2.405,3.353-5.308c.558-3.7,1.118-6.1,1.118-8.367C21,11.712,19,8.415,16.534,8.415Z" transform="matrix(0.574, 0.819, -0.819, 0.574, 67.942, -28.26)" fill="#102a4b"/><path d="M4.471,0C2,0,0,3.3,0,7.364c0,2.263.559,4.663,1.118,8.367.437,2.9,1.5,5.308,3.353,5.308s3.093-1.6,3.093-4.535c0-1-.821-2.589-.857-3.946C6.64,10.11,8.347,9.133,8.347,6.87,8.347,2.8,6.939,0,4.471,0ZM16.534,8.415c-2.469,0-3.877,2.8-3.877,6.87,0,2.263,1.708,3.239,1.641,5.687-.036,1.357-.857,2.947-.857,3.946,0,2.932,1.241,4.535,3.093,4.535s2.916-2.405,3.353-5.308c.558-3.7,1.118-6.1,1.118-8.367C21,11.712,19,8.415,16.534,8.415Z" transform="matrix(0.574, 0.819, -0.819, 0.574, 46.883, -10.288)" fill="#102a4b"/></g></svg>