<svg xmlns="http://www.w3.org/2000/svg" width="330" height="651" viewBox="0 0 330 651"><g transform="translate(-416 -1368)"><g transform="translate(-1947.958 -91)"><rect width="330" height="593" rx="18" transform="translate(2363.958 1517)" fill="#f2e7c4"/></g><path d="M56.087,62.659,23.378,43.774a8.391,8.391,0,1,0-8.393,14.533l32.7,18.885a8.392,8.392,0,0,0,8.4-14.533ZM29.111,42.238,54.55,56.926,63.2,32.846,45.637,22.707,29.111,42.238ZM10.356,104.1,34.692,74.535l-10.9-6.295L10.356,104.1Zm63.36-84.566-21.8-12.59a6.295,6.295,0,0,0-6.295,10.9l21.806,12.59a6.294,6.294,0,1,0,6.291-10.9Z" transform="translate(553.644 1361.904)" fill="#31bfc0"/></g></svg>