<svg xmlns="http://www.w3.org/2000/svg" width="71.008" height="71.008" viewBox="0 0 71.008 71.008"><path d="M384.947,15.995a1.183,1.183,0,0,0,.765-.282l8.38-7.116a4.727,4.727,0,1,0-2.013-3.863,4.679,4.679,0,0,0,.488,2.053l-8.387,7.121a1.184,1.184,0,0,0,.768,2.087ZM396.812,2.367a2.367,2.367,0,1,1-2.367,2.367A2.37,2.37,0,0,1,396.812,2.367Z" transform="translate(-330.538)" fill="#102a4b"/><path d="M46.652,426.367a26.645,26.645,0,0,1-15.611-4.931l1.592-1.244a1.183,1.183,0,0,0-1.456-1.865L17.521,428.985a1.183,1.183,0,1,0,1.456,1.865l10.127-7.9a28.954,28.954,0,0,0,17.548,5.787,1.183,1.183,0,1,0,0-2.367Z" transform="translate(-14.699 -360.093)" fill="#102a4b"/><path d="M80.974,75.367a4.683,4.683,0,0,0-4.454,6.277l-8.13,6.345a1.184,1.184,0,0,0,1.457,1.867l2.231-1.743a27.263,27.263,0,0,1-6.91,29.706,50.673,50.673,0,0,0-6.729-44.484,27.255,27.255,0,0,1,10.5,8.887,1.183,1.183,0,1,0,1.937-1.36,29.639,29.639,0,0,0-24.224-12.6c-.67,0-1.336.03-2,.075-.03,0-.058,0-.09.006a29.376,29.376,0,0,0-18.822,8.575A1.184,1.184,0,0,0,27.415,78.6a27.181,27.181,0,0,1,9.117-6.013,47.8,47.8,0,0,1,4.887,4.92,50.934,50.934,0,0,0-20.6,6.306c-.03.017-.046.046-.076.065a1.208,1.208,0,0,0-.182.159,1.174,1.174,0,0,0-.144.182.981.981,0,0,0-.065.079,29.633,29.633,0,0,0-3.1,10.393.878.878,0,0,0-.011.127,29.216,29.216,0,0,0,1.986,14.141,1.183,1.183,0,0,0,1.1.74,1.205,1.205,0,0,0,.445-.086,1.185,1.185,0,0,0,.652-1.542,26.926,26.926,0,0,1-1.4-4.637A48.409,48.409,0,0,1,50.24,92.7a48.5,48.5,0,0,1,.063,32.748c-.009.026,0,.051-.012.077a1.2,1.2,0,0,0-.03.209,1.1,1.1,0,0,0-.008.25c0,.024-.006.044,0,.067a1.163,1.163,0,0,0,.064.176,1.146,1.146,0,0,0,.059.162,1.132,1.132,0,0,0,.191.259c.024.026.04.056.066.079a1.181,1.181,0,0,0,.786.309,1.143,1.143,0,0,0,.2-.016A29.584,29.584,0,0,0,74.014,86.6l3.824-2.982a4.725,4.725,0,1,0,3.136-8.252ZM22.3,85.7a48.86,48.86,0,0,1,20.92-5.959,48.777,48.777,0,0,1,2.8,4.11A51.289,51.289,0,0,0,20,92.332,26.925,26.925,0,0,1,22.3,85.7Zm-2.7,15.042a27.561,27.561,0,0,1-.162-2.889c0-.779.044-1.549.108-2.316a48.81,48.81,0,0,1,27.81-9.351q1.086,2.038,1.973,4.166A50.894,50.894,0,0,0,19.6,100.742Zm33.6,23.525a50.942,50.942,0,0,0-.972-33.022,1.138,1.138,0,0,0-.108-.289,51.343,51.343,0,0,0-2.941-6.365,1.089,1.089,0,0,0-.14-.252A50.387,50.387,0,0,0,39.108,71.7a27.068,27.068,0,0,1,5.12-.953A48.722,48.722,0,0,1,55.8,123.5,27.08,27.08,0,0,1,53.193,124.266Zm5.6-2.049a51.155,51.155,0,0,0-11.32-51.56,27.206,27.206,0,0,1,6.8,1.077,48.35,48.35,0,0,1,7.391,48.832A27.017,27.017,0,0,1,58.795,122.218Zm22.179-39.75A2.367,2.367,0,1,1,83.341,80.1,2.369,2.369,0,0,1,80.974,82.468Z" transform="translate(-14.7 -58.798)" fill="#102a4b"/><path d="M10.237,349.36a1.184,1.184,0,0,0,1.739-1.608,25.922,25.922,0,0,1-2.387-2.959l6.611-5.779a1.184,1.184,0,0,0-1.559-1.782l-6.979,6.1a1.016,1.016,0,0,0-.781.683L.405,349.676a1.183,1.183,0,1,0,1.557,1.782l5.834-5.1A28.4,28.4,0,0,0,10.237,349.36Z" transform="translate(-0.001 -290.21)" fill="#102a4b"/></svg>