<svg xmlns="http://www.w3.org/2000/svg" width="47.949" height="39.132" viewBox="0 0 47.949 39.132"><path d="M47.637,13.141c0-4.585-3.1-8.274-6.931-8.274C35.517,4.6,30.225,4.5,24.821,4.5H23.135c-5.4,0-10.7.1-15.885.367C3.428,4.867.328,8.576.328,13.161Q-.023,18.6,0,24.044q-.014,5.441.318,10.893c0,4.585,3.1,8.3,6.922,8.3,5.451.275,11.043.4,16.728.387q8.542.031,16.728-.387c3.831,0,6.931-3.719,6.931-8.3.225-3.638.328-7.265.318-10.9Q47.975,18.593,47.637,13.141Zm-28.249,20.9V14.017L32.97,24.024Z" transform="translate(0 -4.5)" fill="#f2e7c4"/></svg>